<svg width="1281" height="832" viewBox="0 0 1281 832" fill="none" xmlns="http://www.w3.org/2000/svg">
<path opacity="0.3" fill-rule="evenodd" clip-rule="evenodd" d="M572.258 832H0.5V291.927C42.6163 276.62 84.2573 276.694 109.847 277.65C233.074 282.253 357.256 315.049 466.605 373.057L467.705 373.64C509.251 395.674 592.216 439.673 621.956 532.962C643.177 599.531 632.955 667.6 623.114 712.527C617.692 737.279 606.202 788.924 572.258 832ZM1280.5 635.81V832H724.339C722.21 816.189 721.606 800.759 722.201 786.371C724 742.86 741.717 701.171 777.841 671.913C810.834 645.191 849.115 637.011 879.031 635.484C879.761 635.446 880.556 635.403 881.414 635.356C885.989 635.106 892.344 634.76 899.995 634.73C912.316 625.43 929.157 614.159 948.686 605.413C972.039 594.955 1021.02 578.427 1073.34 602.281C1088.09 609.003 1100.28 617.67 1110.29 627.419C1128.07 623.134 1153.39 617.791 1178.91 616.289C1202.18 614.92 1242.46 615.569 1280.5 635.81ZM1087.27 0C1087.7 1.31776 1088.1 2.65343 1088.49 4.00704C1095.86 30.0717 1092.3 53.3456 1087.11 69.5051C1077.84 98.408 1059.29 118.086 1049.92 127.182C1038.45 138.323 1025.88 147.62 1014.51 154.598C1008.71 158.156 1002.02 161.849 994.786 165.099C989.129 167.638 976.713 172.893 961.011 175.034C959.386 175.256 957.764 175.437 956.148 175.579C967.78 185.579 979.495 197.113 990.004 209.979C1011.87 236.754 1056.03 305.518 1014.56 382.776C983.042 441.502 928.887 465.917 887.467 475.829C846.883 485.542 806.371 484.563 780.449 483.115C694.541 478.314 606.181 441.5 553.467 350.5C514.271 282.837 520.512 211.012 536.541 157.895C554.977 96.8029 590.31 43.5645 632.124 0L1087.27 0ZM836.341 338.153C836.335 338.153 836.256 338.041 836.121 337.816C836.279 338.04 836.347 338.153 836.341 338.153ZM846.144 279.712C846.147 279.713 846.09 279.743 845.964 279.798C846.078 279.738 846.141 279.711 846.144 279.712ZM911.752 807.653C911.752 807.653 911.76 807.654 911.775 807.656C911.759 807.654 911.751 807.653 911.752 807.653Z" fill="#A2217C"/>
</svg>
