<svg width="14" height="15" viewBox="0 0 14 15" fill="none" xmlns="http://www.w3.org/2000/svg">
<g id="icon-type">
<path id="Vector" d="M12 5.625L6.375 5.625C5.68464 5.625 5.125 6.18464 5.125 6.875L5.125 12.5C5.125 13.1904 5.68464 13.75 6.375 13.75H12C12.6904 13.75 13.25 13.1904 13.25 12.5V6.875C13.25 6.18464 12.6904 5.625 12 5.625Z" stroke="#808080" stroke-width="1.375" stroke-linecap="square"/>
<path id="Vector_2" d="M2.625 9.375H2C1.66848 9.375 1.35054 9.2433 1.11612 9.00888C0.881696 8.77446 0.75 8.45652 0.75 8.125L0.75 2.5C0.75 2.16848 0.881696 1.85054 1.11612 1.61612C1.35054 1.3817 1.66848 1.25 2 1.25L7.625 1.25C7.95652 1.25 8.27446 1.3817 8.50888 1.61612C8.7433 1.85054 8.875 2.16848 8.875 2.5V3.125" stroke="#808080" stroke-width="1.375" stroke-linecap="square"/>
</g>
</svg>
