<?xml version="1.0" encoding="UTF-8" standalone="no"?>
<svg
   xmlns:dc="http://purl.org/dc/elements/1.1/"
   xmlns:cc="http://creativecommons.org/ns#"
   xmlns:rdf="http://www.w3.org/1999/02/22-rdf-syntax-ns#"
   xmlns:svg="http://www.w3.org/2000/svg"
   xmlns="http://www.w3.org/2000/svg"
   xmlns:sodipodi="http://sodipodi.sourceforge.net/DTD/sodipodi-0.dtd"
   xmlns:inkscape="http://www.inkscape.org/namespaces/inkscape"
   clip-rule="evenodd"
   fill-rule="evenodd"
   height="512"
   stroke-linejoin="round"
   stroke-miterlimit="2"
   viewBox="0 0 4709 4638"
   width="512"
   version="1.1"
   id="svg6"
   sodipodi:docname="icon_dl_csv.svg"
   inkscape:version="0.92.5 (2060ec1f9f, 2020-04-08)">
  <metadata
     id="metadata12">
    <rdf:RDF>
      <cc:Work
         rdf:about="">
        <dc:format>image/svg+xml</dc:format>
        <dc:type
           rdf:resource="http://purl.org/dc/dcmitype/StillImage" />
      </cc:Work>
    </rdf:RDF>
  </metadata>
  <defs
     id="defs10" />
  <sodipodi:namedview
     pagecolor="#ffffff"
     bordercolor="#666666"
     borderopacity="1"
     objecttolerance="10"
     gridtolerance="10"
     guidetolerance="10"
     inkscape:pageopacity="0"
     inkscape:pageshadow="2"
     inkscape:window-width="1848"
     inkscape:window-height="1016"
     id="namedview8"
     showgrid="false"
     inkscape:zoom="0.4609375"
     inkscape:cx="256"
     inkscape:cy="256"
     inkscape:window-x="1992"
     inkscape:window-y="27"
     inkscape:window-maximized="1"
     inkscape:current-layer="svg6" />
  <path
     d="m2402.38 3913.96c0-22.325-9.183-39.325-27.554-50.991-18.383-11.684-48.854-21.979-91.438-30.9-42.57-8.942-78.124-20.263-106.616-34.013-62.5-30.208-93.75-73.992-93.75-131.337 0-48.071 20.262-88.263 60.783-120.538s92.029-48.421 154.529-48.421c66.617 0 120.434 16.496 161.475 49.446 41.042 32.971 61.546 75.729 61.546 128.267h-125.154c0-24.029-8.925-44.046-26.792-60-17.845-15.975-41.541-23.958-71.075-23.958-27.483 0-49.879 6.354-67.22 19.062-17.346 12.708-26.009 29.704-26.009 50.988 0 19.237 8.054 34.166 24.2 44.808s48.771 21.392 97.867 32.204c49.112 10.817 87.654 23.683 115.642 38.629 27.987 14.934 48.766 32.884 62.325 53.821 13.562 20.954 20.35 46.354 20.35 76.233 0 50.138-20.784 90.746-62.33 121.821-41.545 31.075-95.987 46.617-163.279 46.617-45.679 0-86.371-8.25-122.083-24.725-35.713-16.475-63.525-39.15-83.438-67.983-19.933-28.855-29.879-59.934-29.879-93.25h121.563c1.716 29.55 12.883 52.291 33.471 68.266 20.608 15.954 47.916 23.942 81.912 23.942 32.967 0 58.021-6.271 75.188-18.804 17.17-12.534 25.766-28.925 25.766-49.184zm-635.625 61.805c31.25 0 57.171-9.096 77.779-27.292 20.605-18.208 31.596-40.692 32.967-67.483h117.95c-1.371 34.687-12.187 67.05-32.446 97.104-20.262 30.033-47.725 53.816-82.412 71.333-34.688 17.521-72.121 26.271-112.292 26.271-77.954 0-139.758-25.246-185.433-75.713-45.663-50.487-68.509-120.191-68.509-209.133v-12.879c0-84.813 22.675-152.729 68.005-203.717 45.312-50.991 107.133-76.491 185.416-76.491 66.284 0 120.275 19.32 161.996 57.95 41.738 38.629 63.629 89.375 65.675 152.204h-117.95c-1.371-31.925-12.275-58.196-32.708-78.8-20.434-20.609-46.442-30.904-78.038-30.904-40.521 0-71.771 14.67-93.75 44.029-21.979 29.375-33.125 73.921-33.471 133.679v20.087c0 60.434 10.9 105.505 32.709 135.209 21.804 29.704 53.312 44.545 94.512 44.546zm-413.941-42.238c23.35 0 41.37 6.613 54.079 19.842 12.708 13.212 19.062 29.775 19.062 49.708 0 19.563-6.354 35.796-19.062 48.663-12.709 12.879-30.729 19.32-54.079 19.32-22.325 0-40-6.354-53.055-19.062-13.058-12.708-19.566-29.008-19.566-48.921 0-19.933 6.354-36.496 19.046-49.708 12.708-13.229 30.57-19.842 53.575-19.842zm1478.12-26.771 117.95-398.679h129.292l-193.162 557.325h-108.68l-194.704-557.329h129.792z"
     fill-rule="nonzero"
     fill="#ffffff"
     id="path2"
     style="stroke:#ffffff;stroke-opacity:1;stroke-width:91.97265625;stroke-miterlimit:2;stroke-dasharray:none;fill:#ffffff;fill-opacity:1" />
  <path
     d="M 2851.63,97.89356 H 1041.37 c -198.695,0 -359.846,154.20925 -359.846,344.58045 V 4186.4874 c 0,91.4228 37.918,178.9865 105.346,243.6393 0.023,0.021 0.045,0.043 0.067,0.065 67.518,64.5675 158.96,100.8769 254.433,100.8769 h 2607.8 c 198.803,0 359.845,-154.2064 359.845,-344.5958 V 1203.302 c 0,-0.6158 0,-1.2306 -0.017,-1.8463 l -0.01,-0.3275 -0.01,-0.202 -0.01,-0.2748 -0.01,-0.2078 c -0.427,-11.6624 -3.873,-22.595 -9.612,-32.1028 l -0.06,-0.1024 -0.142,-0.2299 -0.166,-0.272 -0.148,-0.2364 c -3.022,-4.8665 -6.699,-9.4217 -11.005,-13.545 L 2906.166,118.17218 c -13.561,-12.9857 -31.954,-20.281493 -51.133,-20.281493 h -3.4 v 0.0038 z m -72.312,138.48966 h -1737.95 c -118.838,0 -215.221,92.23195 -215.221,206.09079 V 4186.4874 c 0,54.6891 22.695,107.0619 63.02,145.7442 40.396,38.6153 95.09,60.3466 152.201,60.3466 h 2607.8 c 118.904,0 215.22,-92.2339 215.22,-206.1061 V 1272.1613 h -725.204 c -95.406,0 -186.908,-36.3056 -254.443,-100.876 -0.024,-0.023 -0.049,-0.046 -0.073,-0.069 -67.427,-64.6519 -105.346,-152.2932 -105.346,-243.65472 V 236.3813 Z m 144.625,94.66803 838.177,802.62235 h -622.94 c -57.076,0 -111.809,-21.7351 -152.22,-60.3532 -40.325,-38.6833 -63.017,-91.10487 -63.017,-145.75769 z"
     id="path4"
     style="fill:#ffffff;fill-opacity:1;stroke:#ffffff;stroke-width:180.00132751;stroke-miterlimit:4;stroke-dasharray:none;stroke-opacity:1"
     inkscape:connector-curvature="0" />
</svg>
